<?xml version="1.0" standalone="no"?><!DOCTYPE svg PUBLIC "-//W3C//DTD SVG 1.1//EN" "http://www.w3.org/Graphics/SVG/1.1/DTD/svg11.dtd"><svg t="1664806875991" class="icon" viewBox="0 0 1024 1024" version="1.1" xmlns="http://www.w3.org/2000/svg" p-id="5484" xmlns:xlink="http://www.w3.org/1999/xlink" width="200" height="200"><path d="M0 0m153.6 0l716.8 0q153.6 0 153.6 153.6l0 716.8q0 153.6-153.6 153.6l-716.8 0q-153.6 0-153.6-153.6l0-716.8q0-153.6 153.6-153.6Z" fill="#4CA4FE" p-id="5485"></path><path d="M205.1584 389.29408h39.90016l47.5648 56.7808h434.2528l46.03392-56.7808h46.03392v306.8928c0 67.51744-55.23968 122.75712-122.75712 122.75712H327.91552c-67.51744 0-122.75712-55.23968-122.75712-122.75712v-306.8928z m204.0832 194.87744v-41.43104c0-10.74176-9.20576-19.94752-19.94752-19.94752s-19.94752 9.20576-19.94752 19.94752v61.37856c0 10.74176 9.20576 19.94752 19.94752 19.94752h256.256c10.74176 0 19.94752-9.20576 19.94752-19.94752v-61.37856c0-10.74176-9.20576-19.94752-19.94752-19.94752s-19.94752 9.20576-19.94752 19.94752v41.43104H409.2416z" fill="#FFFFFF" p-id="5486"></path><path d="M266.53696 327.91552h491.02848v41.43104l-41.43104 50.6368H307.968l-41.43104-50.6368z" fill="#FFFFFF" opacity=".798" p-id="5487"></path><path d="M266.53696 205.1584h491.02848v41.43104l-41.43104 50.6368H307.968l-41.43104-50.6368z" fill="#FFFFFF" opacity=".603" p-id="5488"></path></svg>