<?xml version="1.0" standalone="no"?><!DOCTYPE svg PUBLIC "-//W3C//DTD SVG 1.1//EN" "http://www.w3.org/Graphics/SVG/1.1/DTD/svg11.dtd"><svg t="1664805733003" class="icon" viewBox="0 0 1057 1024" version="1.1" xmlns="http://www.w3.org/2000/svg" p-id="5929" xmlns:xlink="http://www.w3.org/1999/xlink" width="206.4453125" height="200"><path d="M1043.103738 379.232328L528.823188 16.19521 14.542638 379.232328a3.106836 3.106836 0 0 0 1.784778 5.68485h119.976761v625.862242h785.104125V384.917178h119.910657a3.106836 3.106836 0 0 0 1.784779-5.68485z" fill="#FFF100" p-id="5930"></path><path d="M1043.103738 379.232328l-176.825254-124.802272v756.349364h55.129818V384.917178h119.910657a3.106836 3.106836 0 0 0 1.784779-5.68485z" fill="#F8B62D" p-id="5931"></path><path d="M16.327416 384.917178h81.63708L571.591763 46.272029 528.823188 16.19521 14.542638 379.232328a3.106836 3.106836 0 0 0 1.784778 5.68485z" fill="#FFFFFF" p-id="5932"></path><path d="M187.533923 1024h-64.450326V398.137757H16.327416a16.327416 16.327416 0 0 1-9.386612-29.680201L528.823188 0l127.115873 89.701633a13.22058 13.22058 0 0 1-15.269769 21.615648L528.823188 32.39042 48.189013 371.696598h101.335743v625.862243h38.009167a13.22058 13.22058 0 1 1 0 26.441159zM758.464657 191.698406a13.22058 13.22058 0 0 1-7.667936-2.445808l-47.19747-33.051449a13.22058 13.22058 0 0 1 15.26977-21.615648l47.197469 33.381964a13.22058 13.22058 0 0 1-7.601833 23.730941zM934.628881 1024H261.304758a13.22058 13.22058 0 0 1 0-26.441159h646.882964V371.696598h101.26964l-201.812149-142.517849a13.22058 13.22058 0 1 1 15.26977-21.549545L1051.036085 368.457556a16.327416 16.327416 0 0 1-9.452714 29.680201h-106.95449z" fill="#231815" p-id="5933"></path><path d="M528.823188 292.769737m-119.447938 0a119.447938 119.447938 0 1 0 238.895875 0 119.447938 119.447938 0 1 0-238.895875 0Z" fill="#00A0E9" p-id="5934"></path><path d="M528.823188 425.438254a132.668517 132.668517 0 1 1 132.668517-132.668517A132.800723 132.800723 0 0 1 528.823188 425.438254z m0-238.895875a106.227358 106.227358 0 1 0 106.227357 106.227358A106.359564 106.359564 0 0 0 528.823188 186.542379z" fill="#231815" p-id="5935"></path><path d="M691.370215 751.259441v259.453876H366.27616V572.186689h325.094055v111.647796" fill="#FFFFFF" p-id="5936"></path><path d="M704.590795 1023.933897H353.055581V558.966109h351.535214v124.868376a13.22058 13.22058 0 1 1-26.44116 0V585.407269H379.49674v412.085469h298.652895v-246.233297a13.22058 13.22058 0 0 1 26.44116 0z" fill="#231815" p-id="5937"></path></svg>